PathFileType	4	(X/Y/Z)	C:/Users/beibeiliu/ov580/test_trc/User2\sequence.35_training_dense_right.trc
DataRate	CameraRate	NumFrames	NumMarkers	Units	OrigDataRate	OrigDataStartFrame	OrigNumFrames
120	120	24	19	mm	120	29	56
Frame#	Time	ThumbCMC			ThumbMCP			ThumbIP			ThumbTip			IndexMCP			IndexPIP			IndexTip			MiddleMCP			MiddlePIP			MiddleTip			RingMCP			RingPIP			RingTip			PinkyMCP			PinkyPIP			PinkyTip			BackHand1			BackHand2			BackHand3	
		X0	Y0	Z0	X1	Y1	Z1	X2	Y2	Z2	X3	Y3	Z3	X4	Y4	Z4	X5	Y5	Z5	X6	Y6	Z6	X7	Y7	Z7	X8	Y8	Z8	X9	Y9	Z9	X10	Y10	Z10	X11	Y11	Z11	X12	Y12	Z12	X13	Y13	Z13	X14	Y14	Z14	X15	Y15	Z15	X16	Y16	Z16	X17	Y17	Z17	X18	Y18	Z18	
28	0.233333	87.48	71.4216	-8.4017	64.4996	80.5396	-32.8159	48.244	88.6102	-58.6833	43.3979	92.3626	-87.1391	131.278	119.778	-64.3195	133.11	130.336	-91.6221	118.727	123.799	-125.103	150.716	110.827	-72.9773	147.928	122.303	-106.275	125.217	109.658	-137.021	161.229	91.2052	-78.4005	159.779	102.071	-107.26	139.167	97.9951	-132.964	162.161	64.038	-77.2971	161.463	79.407	-103.539	152.894	86.5119	-127.291	155.095	59.3861	-29.997	154.558	41.8501	-0.884645	130.319	78.3623	-7.70332	
29	0.241667	79.4076	64.8296	-2.89657	55.276	74.9388	-25.3089	36.7833	89.777	-54.5599	40.4939	93.1159	-83.7753	115.587	118.386	-62.9975	114.444	131.123	-87.5326	102.916	127.284	-117.658	135.183	114.069	-71.1461	129.162	125.272	-105.323	104.649	116.352	-133.832	146.079	93.0444	-75.4425	140.634	108.535	-105.255	119.333	105.399	-131.155	148.894	67.5879	-75.4192	146.807	84.9298	-102.933	138.683	92.9715	-124.662	145.395	61.5993	-30.8649	148.253	42.8806	-1.34885	117.799	74.3368	-2.36341	
30	0.25	73.4106	66.7077	-0.309982	51.8465	82.1101	-20.5712	40.2771	94.0615	-49.9384	44.6726	95.5906	-77.2541	101.818	117.632	-59.8139	103.462	127.439	-89.7573	93.3187	128.053	-117.148	123.63	111.271	-71.4818	117.77	125.717	-105.578	98.1683	118.751	-135.407	135.923	93.4161	-77.6323	129.057	108.597	-103.857	110.474	105.834	-134.668	136.99	67.5651	-76.386	132.205	84.7203	-100.39	125.898	94.7947	-121.303	137.591	58.1282	-31.6471	139.032	42.908	-4.33759	113.019	72.5412	-2.32088	
31	0.258333	70.3786	65.1047	1.54984	51.7102	85.6855	-22.6009	46.8963	94.7431	-54.15	58.5937	89.3434	-82.6961	98.0422	111.687	-60.9997	95.7116	127.129	-90.5659	89.1229	128.478	-120.093	117.734	109.681	-74.035	113.329	123.376	-105.47	94.467	126.998	-138.257	126.255	91.7716	-80.0672	122.385	104.924	-106.732	106.362	111.802	-130.745	131.118	63.3217	-78.7197	125.255	80.1347	-99.9673	117.995	95.3568	-120.293	129.975	57.8858	-32.7659	133.693	42.9763	-1.46998	110.211	70.1831	-5.22447	
32	0.266667	61.1367	60.2641	2.71363	46.1578	80.658	-28.3792	50.0717	86.8161	-64.5896	70.8627	73.0029	-83.9845	87.1241	110.472	-59.9975	83.4177	128.868	-88.8796	81.3328	134.321	-113.587	105.584	106.736	-71.511	101.129	126.587	-101.552	97.6403	135.55	-133.951	117.577	90.4358	-78.7977	113.744	106.352	-102.263	106.138	118.138	-131.171	123.833	63.9866	-76.0137	122.275	79.1758	-99.4651	114.199	98.4409	-118.913	126.919	57.3706	-31.4785	129.991	41.5812	-5.22932	102.543	71.3388	-7.41119	
33	0.275	52.9885	53.4504	-0.694555	35.1411	69.3401	-29.9611	45.525	73.0739	-66.7236	73.929	63.8387	-83.7638	71.1914	112.367	-60.5358	71.288	125.76	-82.6792	73.9884	136.316	-108.617	94.7079	104.737	-71.1771	90.0956	125.759	-96.3381	89.0233	142.784	-120.543	108.173	93.92	-79.0373	106.186	108.422	-98.3817	103.11	122.597	-121.314	117.726	69.1064	-74.5046	115.354	83.3599	-94.0143	113.765	103.997	-111.997	118.084	62.2274	-27.5546	120.348	48.131	-2.01147	87.6772	69.8179	-1.43986	
34	0.283333	44.414	50.5991	-1.72711	27.4507	64.0682	-33.2433	41.3102	64.1819	-63.7046	70.3779	58.3816	-80.3417	61.9415	106.138	-59.0093	57.3701	126.555	-81.9181	60.7542	137.732	-102.307	77.3338	109.515	-69.2478	77.2472	124.85	-91.5696	79.0439	146.514	-116.366	95.5017	94.7823	-72.4539	95.4704	108.345	-92.0607	90.7075	130.987	-114.439	108.885	71.0597	-69.66	107.439	86.3208	-89.9639	103.987	105.576	-103.331	107.963	61.3875	-24.3588	110.316	48.9175	4.51133	76.7132	71.1795	-1.74458	
35	0.291667	38.1344	44.0878	0.13524	23.0766	57.3251	-36.1722	36.4225	57.8921	-69.3787	65.4391	49.1522	-75.8603	52.3292	104.588	-61.2537	55.2475	115.409	-82.4107	55.0433	132.393	-102.983	74.02	104.971	-71.6407	73.793	120.892	-93.9061	78.4303	139.649	-115.664	93.6252	88.4738	-72.2913	88.9039	107.168	-93.1038	90.9131	126.319	-114.707	104.188	69.336	-68.5287	102.364	80.3348	-85.815	102.029	100.652	-103.07	99.1822	62.674	-22.0048	104.505	47.6746	8.19716	72.4319	68.1713	-1.34365	
36	0.3	40.198	38.8742	-9.25555	26.2887	43.8763	-41.6462	46.2088	45.9463	-78.0267	72.996	36.6441	-82.3971	62.3983	90.0387	-70.0437	60.9323	104.232	-91.6873	67.977	115.372	-114.135	78.3748	92.6931	-78.0996	82.4859	105.836	-101.708	85.2657	128.209	-124.928	98.9383	76.9654	-76.4064	99.1073	93.7412	-100.315	99.1778	111.742	-121.155	113.574	53.7553	-69.8739	113.172	72.3407	-93.3304	110.751	85.8778	-103.972	102.193	52.0413	-26.5822	104.367	44.9956	1.88387	73.2087	59.4138	-4.69225	
37	0.308333	48.6245	22.4976	-16.7528	34.9616	27.8888	-53.9336	58.2578	26.4225	-89.0203	87.1521	16.9679	-88.5504	73.5323	69.2357	-82.7443	78.1961	80.6679	-106.168	80.0837	94.5634	-130.829	94.6044	72.6604	-89.7939	100.318	84.3604	-115.803	105.453	101.507	-141.462	113.328	59.2962	-84.3665	114.516	73.5633	-110.322	114.242	87.8393	-130.859	127.164	38.0004	-77.2945	126.836	52.0965	-100.467	124.458	67.5538	-116.882	113.541	39.4163	-31.3431	115.257	33.9121	-3.79758	80.6184	49.1093	-19.551	
38	0.316667	53.1645	16.554	-20.4171	42.0443	17.2688	-58.3252	64.7213	10.0687	-91.3859	90.9019	-1.67808	-91.2251	82.5541	52.9663	-96.0288	84.7965	60.8981	-120.644	91.1319	66.048	-147.392	105.517	51.3726	-98.3502	105.881	60.9433	-126.363	110.91	73.7699	-156.367	119.559	41.3293	-95.0054	124.771	48.5235	-115.972	123.266	60.4153	-143.014	132.416	18.3353	-79.772	134.561	25.8634	-103.424	131.341	38.2716	-124.351	118.874	25.8624	-37.0467	117.56	26.0183	-8.38365	88.3523	40.8849	-25.1897	
39	0.325	50.5626	23.4094	-17.9664	43.4089	17.7259	-56.4197	60.7497	0.688854	-83.2107	82.3013	-14.9734	-83.0641	77.3079	38.2861	-95.2169	78.9726	40.653	-123.638	82.2838	39.3826	-152.754	98.2558	34.1689	-106.123	101.131	34.4997	-136.742	104.659	36.8984	-167.049	117.267	18.6629	-100.786	116.419	22.6041	-124.709	114.689	26.8905	-153.958	121.825	0.102533	-82.0936	123.319	2.13086	-108.982	120.834	8.63508	-132.821	120.772	14.8605	-40.6946	121.947	18.1433	-8.10779	90.4805	38.9019	-28.5674	
40	0.333333	58.7776	45.2128	-15.011	39.8921	36.4065	-45.0062	42.9131	9.41794	-71.1793	62.9381	-12.5259	-67.6776	69.3532	35.587	-95.4624	65.175	27.6198	-121.308	61.2171	20.9764	-151.266	83.7256	16.1287	-104.796	74.1538	12.8471	-130.568	71.4495	9.09276	-162.842	95.8012	-1.38959	-95.9774	88.8521	-1.09027	-123	83.9172	-3.07957	-149.907	99.2881	-18.6731	-79.9004	91.7128	-19.6394	-104.935	87.6844	-16.5291	-127.118	110.674	8.07932	-42.4319	122.902	15.4492	-13.0154	97.4186	38.4052	-30.0068	
41	0.341667	81.7164	71.6951	-13.8727	51.7894	75.4741	-38.2046	37.5349	43.3727	-56.0037	41.9464	13.5224	-51.413	63.8011	52.3353	-92.9787	48.5523	45.578	-114.672	36.1591	41.3108	-136.421	61.915	28.6589	-101.285	45.9738	22.7795	-122.967	32.255	17.6581	-150.722	63.6519	6.78698	-91.4423	53.091	8.24148	-110.512	38.9369	5.30767	-139.442	62.6672	-8.58024	-67.2169	47.3136	-3.57187	-92.0523	41.6256	-5.74638	-110.528	99.3586	9.57096	-39.5251	114.398	12.7007	-16.6594	106.608	48.0978	-33.4526	
42	0.35	108.654	83.3282	-17.9598	81.4579	101.454	-36.2587	47.5966	82.2618	-48.3444	37.8882	53.245	-40.2869	66.0704	71.3006	-90.669	49.6542	74.6372	-106.354	31.2171	76.9	-126.155	53.3799	51.8353	-94.1002	35.9099	55.8407	-111.378	16.7572	59.6715	-136.693	47.111	39.6795	-80.2187	30.7945	42.6399	-100.047	18.497	48.2854	-120.909	39.888	24.5635	-56.636	25.8345	31.2815	-74.4663	16.3179	35.0507	-96.7471	86.8398	22.1144	-36.2203	104.818	15.7127	-16.0472	112.01	50.0305	-38.7342	
43	0.358333	129.784	86.3622	-20.427	107.785	110.654	-36.9584	70.8252	108.816	-43.284	51.5576	90.0601	-33.6423	79.9462	87.3129	-85.0509	62.2227	101.101	-108.479	45.5505	109.41	-122.89	60.972	76.984	-85.7116	43.8607	90.7815	-108.593	25.7087	99.3968	-129.038	46.8178	67.8761	-73.239	30.4709	80.4889	-93.4483	15.3415	86.9594	-111.308	35.8979	59.8497	-50.9874	25.7755	73.3749	-66.9747	14.1107	77.8121	-86.1753	80.9563	38.5394	-32.5613	97.2018	24.3787	-14.3667	114.055	49.0309	-34.7654	
44	0.366667	134.671	83.3867	-20.4579	124.895	111.84	-37.8718	88.7811	120.104	-44.2112	63.468	107.227	-33.6774	90.0883	94.8791	-89.7727	78.4153	107.852	-106.91	57.0728	120.505	-123.691	69.1661	90.216	-87.5176	51.9779	103.941	-107.973	37.8188	116.069	-130.983	51.3818	86.5445	-73.8537	40.2729	98.7492	-93.2925	27.0776	108.978	-111.675	45.9129	82.5913	-47.9976	32.1825	95.7069	-66.5096	26.8357	102.79	-86.3048	77.2888	50.1526	-33.1993	93.4959	32.6555	-6.63801	117.118	51.6311	-33.242	
45	0.375	140.227	80.5987	-19.0007	130.454	108.294	-42.355	95.3059	119.195	-53.0761	67.2512	106.799	-40.8011	99.0721	86.4985	-86.7291	88.7554	100.459	-111.283	70.3338	113.469	-132.528	78.9737	84.0029	-90.2733	66.5445	96.4718	-112.284	48.4044	107.409	-137.829	62.7656	81.9356	-73.9773	49.8557	94.2536	-98.0948	39.3886	102.903	-120.332	48.8239	81.5833	-53.1501	44.2282	94.2378	-69.4345	32.0554	97.4689	-91.9417	83.931	51.5537	-30.6439	92.5731	31.4097	-4.13767	121.704	50.8319	-34.6137	
46	0.383333	145.471	73.9245	-23.551	133.011	95.7947	-49	95.4587	102.324	-65.3996	73.4724	91.6654	-53.2356	109.894	68.795	-95.6809	94.755	74.9246	-119.107	77.1322	83.2416	-144.322	86.4689	61.2006	-96.9388	74.9634	69.2813	-124.891	59.6964	74.7038	-150.89	71.039	58.9127	-83.2509	59.6953	66.3807	-109.678	50.1824	72.0376	-134.794	53.9812	59.6378	-63.9179	46.4317	69.4013	-86.8014	45.5176	72.4978	-106.799	84.0508	38.1464	-36.4703	96.7942	22.6183	-10.2873	124.313	38.5879	-34.5201	
47	0.391667	145.497	57.3354	-28.344	133.775	77.1401	-63.2194	100.168	75.3412	-81.5985	77.4184	57.5185	-67.3356	121.334	38.4804	-104.283	105.006	36.6345	-130.659	95.2337	40.412	-156.028	96.4725	24.439	-108.012	87.5772	26.2454	-139.33	77.5445	26.0949	-168.06	81.6754	21.6394	-93.4874	70.1646	21.6826	-122.707	65.2042	24.3793	-147.415	65.9297	24.3829	-75.0179	62.4968	29.4961	-99.0888	59.5598	27.2168	-121.132	96.5161	9.46432	-41.2748	111.283	2.7268	-12.2272	136.114	19.6151	-36.6033	
48	0.4	148.739	47.7537	-39.2409	134.317	61.3246	-74.3816	101.694	46.5763	-94.1041	82.3622	29.0681	-83.3805	131.971	10.4977	-115.998	127.225	9.1468	-138.442	112.215	3.78251	-162.495	115.124	-5.80035	-115.851	110.676	-8.04454	-145.313	102.418	-14.0819	-175.655	102.158	-10.6238	-103.644	94.3425	-15.2289	-127.784	86.2764	-18.6895	-161.053	81.8576	-9.5868	-82.7156	76.3542	-12.7442	-108.586	79.3947	-13.3521	-131.443	111.753	-11.7902	-45.9625	122.535	-15.1126	-19.1517	147.625	5.8921	-42.9472	
49	0.408333	146.747	45.7113	-43.9166	132.651	52.3611	-80.9122	107.69	35.8327	-99.9271	93.3145	9.17005	-88.3585	148.469	7.59387	-115.459	143.236	0.424622	-145.916	135.15	-6.54441	-171.516	140.8	-10.2324	-116.252	134.863	-21.5239	-150.779	132.467	-26.3136	-177.743	122.956	-25.0788	-108.684	123.647	-27.4786	-133.733	119.898	-33.7168	-165.646	105.821	-24.0855	-88.1649	102.314	-30.5919	-115.512	107.937	-32.3253	-136.707	129.38	-19.7697	-52.3089	137.518	-15.4249	-22.5741	158.816	6.20506	-44.0045	
50	0.416667	142.199	58.2057	-42.6988	128.055	62.0615	-78.7717	114.109	36.1415	-100.009	109.06	3.68486	-91.7373	164.881	26.6251	-115.171	163.835	21.6331	-142.638	159.586	14.376	-167.972	162.577	5.13986	-120.197	162.865	1.88981	-147.436	162.058	-9.01674	-178.197	149.718	-14.9218	-109.324	152.004	-16.2573	-134.657	152.506	-19.6116	-167.332	131.584	-21.6396	-93.1898	135.746	-21.2797	-119.151	138.097	-27.0783	-142.34	149.969	-9.16088	-55.7855	153.721	-7.75503	-23.182	164.308	21.6151	-39.7374	
51	0.425	120.89	62.6426	-31.1744	115.164	62.8601	-70.6798	116.631	39.7125	-96.4842	127.806	10.5069	-93.3843	163.136	57.4708	-102.693	166.089	57.475	-130.702	168.195	58.2972	-161.166	172.048	39.4946	-108.968	176.759	42.6986	-139.97	182.544	45.0848	-174.167	172.121	14.3734	-105.88	176.537	22.7959	-135.479	179.382	22.9188	-164.647	160.821	-1.23238	-95.5275	163.835	-0.257882	-118.886	171.18	8.92612	-145.102	166.882	11.0746	-52.8459	166.246	5.64467	-19.0289	161.735	45.1382	-32.6553	
